<svg width="49" height="54" viewBox="0 0 49 54" fill="none" xmlns="http://www.w3.org/2000/svg">
<g clip-path="url(#clip0)">
<path style="mix-blend-mode:screen" d="M44.5748 29.2957C46.4215 17.7192 38.5093 6.84154 26.9024 4.99972C15.2955 3.1579 4.3893 11.0494 2.54264 22.6259C0.695985 34.2023 8.6082 45.08 20.2151 46.9218C31.8219 48.7636 42.7282 40.8721 44.5748 29.2957Z" fill="url(#paint0_radial)"/>
<path style="mix-blend-mode:screen" d="M37.5231 39.8858C45.2354 32.1936 45.2354 19.7222 37.5231 12.03C29.8107 4.33782 17.3065 4.33782 9.59411 12.03C1.88175 19.7222 1.88175 32.1936 9.59411 39.8858C17.3065 47.578 29.8107 47.578 37.5231 39.8858Z" fill="url(#paint1_radial)"/>
<path style="mix-blend-mode:color-dodge" d="M44.3737 29.2603C46.2027 17.7947 38.3663 7.02121 26.8705 5.19702C15.3748 3.37284 4.57299 11.1888 2.74402 22.6544C0.915048 34.12 8.7515 44.8935 20.2472 46.7177C31.743 48.5419 42.5448 40.726 44.3737 29.2603Z" fill="url(#paint2_radial)"/>
<path style="mix-blend-mode:color-burn" d="M44.3737 29.2603C46.2027 17.7947 38.3663 7.02121 26.8705 5.19702C15.3748 3.37284 4.57299 11.1888 2.74402 22.6544C0.915048 34.12 8.7515 44.8935 20.2472 46.7177C31.743 48.5419 42.5448 40.726 44.3737 29.2603Z" fill="url(#paint3_radial)"/>
<path style="mix-blend-mode:screen" d="M25.998 3.89533C27.8761 7.81103 25.1829 13.0003 19.98 15.4832C14.7771 17.9661 9.03413 16.811 7.15605 12.8953C5.27797 8.97964 7.97113 3.79372 13.1741 1.30745C18.377 -1.17881 24.1131 -3.57465e-05 25.998 3.89533Z" fill="url(#paint4_radial)"/>
<path style="mix-blend-mode:color-dodge" d="M14.5188 20.2762C13.0347 26.2141 8.83025 30.2822 5.14201 29.3643C1.45376 28.4463 -0.339417 22.8878 1.14131 16.9364C2.62205 10.9849 6.82311 6.94389 10.5283 7.86184C14.2336 8.77979 16.003 14.3383 14.5188 20.2762Z" fill="url(#paint5_radial)"/>
<path style="mix-blend-mode:screen" d="M42.7615 38.3812C46.2071 38.3812 49.0002 32.2241 49.0002 24.6289C49.0002 17.0337 46.2071 10.8765 42.7615 10.8765C39.3159 10.8765 36.5227 17.0337 36.5227 24.6289C36.5227 32.2241 39.3159 38.3812 42.7615 38.3812Z" fill="url(#paint6_radial)"/>
<path style="mix-blend-mode:screen" d="M7.34267 46.6767C1.05974 40.4102 -1.72852 33.0327 1.11408 30.201C3.95668 27.3692 11.3535 30.1468 17.6331 36.4132C23.9126 42.6797 26.7076 50.0572 23.8651 52.8923C21.0225 55.7275 13.6256 52.9431 7.34267 46.6767Z" fill="url(#paint7_radial)"/>
<path style="mix-blend-mode:screen" d="M9.58747 13.8878C11.7678 14.3146 8.79955 17.9187 7.81127 22.8912C6.82298 27.8637 8.23239 32.3146 6.05205 31.8878C3.87171 31.461 2.90719 27.0982 3.8785 22.1223C4.8498 17.1464 7.40712 13.4678 9.58747 13.8878Z" fill="url(#paint8_linear)"/>
<path style="mix-blend-mode:screen" d="M40.2346 33.534C40.9138 33.7712 39.6606 37.9375 35.6192 41.0064C31.5777 44.0753 27.234 44.204 27.1695 43.4994C27.0438 42.7745 30.6132 41.5958 34.0196 38.9401C37.4905 36.3556 39.5655 33.2292 40.2346 33.534Z" fill="url(#paint9_linear)"/>
<path style="mix-blend-mode:screen" d="M31.4181 9.19984C31.6558 8.52239 35.8331 9.77229 38.9101 13.8032C41.987 17.834 42.1127 22.1664 41.4063 22.2205C40.6761 22.3493 39.4942 18.7892 36.8316 15.3918C34.2403 11.9368 31.1057 9.86714 31.4181 9.19984Z" fill="url(#paint10_linear)"/>
</g>
<defs>
<radialGradient id="paint0_radial" cx="0" cy="0" r="1" gradientUnits="userSpaceOnUse" gradientTransform="translate(23.5589 25.9568) scale(21.2804 21.2247)">
<stop offset="0.76"/>
<stop offset="0.86" stop-color="#020202"/>
<stop offset="0.9" stop-color="#090909"/>
<stop offset="0.92" stop-color="#141414"/>
<stop offset="0.94" stop-color="#252525"/>
<stop offset="0.96" stop-color="#3B3B3B"/>
<stop offset="0.98" stop-color="#575757"/>
<stop offset="0.99" stop-color="#767676"/>
<stop offset="1" stop-color="#969696"/>
</radialGradient>
<radialGradient id="paint1_radial" cx="0" cy="0" r="1" gradientUnits="userSpaceOnUse" gradientTransform="translate(30.4368 13.9919) scale(27.869 27.796)">
<stop stop-color="white"/>
<stop offset="0.01" stop-color="#F8F8F8"/>
<stop offset="0.09" stop-color="#C4C4C4"/>
<stop offset="0.17" stop-color="#969696"/>
<stop offset="0.26" stop-color="#6D6D6D"/>
<stop offset="0.35" stop-color="#4C4C4C"/>
<stop offset="0.44" stop-color="#303030"/>
<stop offset="0.55" stop-color="#1B1B1B"/>
<stop offset="0.66" stop-color="#0C0C0C"/>
<stop offset="0.8" stop-color="#030303"/>
<stop offset="1"/>
</radialGradient>
<radialGradient id="paint2_radial" cx="0" cy="0" r="1" gradientUnits="userSpaceOnUse" gradientTransform="translate(25.4677 23.1285) scale(24.7004 24.6357)">
<stop offset="0.51" stop-color="#020202"/>
<stop offset="0.87" stop-color="#2B2B2B"/>
<stop offset="0.91" stop-color="#212121"/>
<stop offset="0.98" stop-color="#080808"/>
<stop offset="1"/>
</radialGradient>
<radialGradient id="paint3_radial" cx="0" cy="0" r="1" gradientUnits="userSpaceOnUse" gradientTransform="translate(21.6029 24.3038) scale(24.0789 24.0158)">
<stop offset="0.4" stop-color="white"/>
<stop offset="0.45" stop-color="#F7F7F7"/>
<stop offset="0.54" stop-color="#DFDFDF"/>
<stop offset="0.65" stop-color="#BABABA"/>
<stop offset="0.78" stop-color="#868686"/>
<stop offset="0.89" stop-color="#575757"/>
</radialGradient>
<radialGradient id="paint4_radial" cx="0" cy="0" r="1" gradientUnits="userSpaceOnUse" gradientTransform="translate(16.5856 8.13499) rotate(-25.479) scale(10.4115 7.87647)">
<stop stop-color="white"/>
<stop offset="0.01" stop-color="#F6F6F6"/>
<stop offset="0.04" stop-color="#C8C8C8"/>
<stop offset="0.07" stop-color="#9D9D9D"/>
<stop offset="0.11" stop-color="#777777"/>
<stop offset="0.15" stop-color="#575757"/>
<stop offset="0.2" stop-color="#3B3B3B"/>
<stop offset="0.25" stop-color="#252525"/>
<stop offset="0.31" stop-color="#141414"/>
<stop offset="0.39" stop-color="#090909"/>
<stop offset="0.49" stop-color="#020202"/>
<stop offset="0.78"/>
</radialGradient>
<radialGradient id="paint5_radial" cx="0" cy="0" r="1" gradientUnits="userSpaceOnUse" gradientTransform="translate(7.8273 18.7518) rotate(13.8622) scale(6.88802 11.0586)">
<stop stop-color="white"/>
<stop offset="0.01" stop-color="#F6F6F6"/>
<stop offset="0.05" stop-color="#C8C8C8"/>
<stop offset="0.09" stop-color="#9D9D9D"/>
<stop offset="0.14" stop-color="#777777"/>
<stop offset="0.2" stop-color="#575757"/>
<stop offset="0.25" stop-color="#3B3B3B"/>
<stop offset="0.32" stop-color="#252525"/>
<stop offset="0.4" stop-color="#141414"/>
<stop offset="0.49" stop-color="#090909"/>
<stop offset="0.63" stop-color="#020202"/>
<stop offset="1"/>
</radialGradient>
<radialGradient id="paint6_radial" cx="0" cy="0" r="1" gradientUnits="userSpaceOnUse" gradientTransform="translate(1607.57 -36851) scale(229.212 1116.63)">
<stop stop-color="white"/>
<stop offset="0.01" stop-color="#F6F6F6"/>
<stop offset="0.05" stop-color="#C8C8C8"/>
<stop offset="0.09" stop-color="#9D9D9D"/>
<stop offset="0.14" stop-color="#777777"/>
<stop offset="0.2" stop-color="#575757"/>
<stop offset="0.25" stop-color="#3B3B3B"/>
<stop offset="0.32" stop-color="#252525"/>
<stop offset="0.4" stop-color="#141414"/>
<stop offset="0.49" stop-color="#090909"/>
<stop offset="0.63" stop-color="#020202"/>
<stop offset="1"/>
</radialGradient>
<radialGradient id="paint7_radial" cx="0" cy="0" r="1" gradientUnits="userSpaceOnUse" gradientTransform="translate(8737.49 89699.8) rotate(135.075) scale(534.547 1181.3)">
<stop stop-color="white"/>
<stop offset="0.01" stop-color="#F6F6F6"/>
<stop offset="0.05" stop-color="#C8C8C8"/>
<stop offset="0.09" stop-color="#9D9D9D"/>
<stop offset="0.14" stop-color="#777777"/>
<stop offset="0.2" stop-color="#575757"/>
<stop offset="0.25" stop-color="#3B3B3B"/>
<stop offset="0.32" stop-color="#252525"/>
<stop offset="0.4" stop-color="#141414"/>
<stop offset="0.49" stop-color="#090909"/>
<stop offset="0.63" stop-color="#020202"/>
<stop offset="1"/>
</radialGradient>
<linearGradient id="paint8_linear" x1="16.3017" y1="24.7407" x2="-0.610576" y2="21.03" gradientUnits="userSpaceOnUse">
<stop/>
<stop offset="0.28" stop-color="#020202"/>
<stop offset="0.42" stop-color="#0A0A0A"/>
<stop offset="0.53" stop-color="#171717"/>
<stop offset="0.62" stop-color="#292929"/>
<stop offset="0.7" stop-color="#414141"/>
<stop offset="0.77" stop-color="#5F5F5F"/>
<stop offset="0.84" stop-color="#838383"/>
<stop offset="0.9" stop-color="#ACACAC"/>
<stop offset="0.96" stop-color="#D9D9D9"/>
<stop offset="1" stop-color="white"/>
</linearGradient>
<linearGradient id="paint9_linear" x1="-9219.45" y1="-1479.64" x2="-8877.07" y2="-1030.82" gradientUnits="userSpaceOnUse">
<stop/>
<stop offset="0.28" stop-color="#020202"/>
<stop offset="0.42" stop-color="#0A0A0A"/>
<stop offset="0.53" stop-color="#171717"/>
<stop offset="0.62" stop-color="#292929"/>
<stop offset="0.7" stop-color="#414141"/>
<stop offset="0.77" stop-color="#5F5F5F"/>
<stop offset="0.84" stop-color="#838383"/>
<stop offset="0.9" stop-color="#ACACAC"/>
<stop offset="0.96" stop-color="#D9D9D9"/>
<stop offset="1" stop-color="white"/>
</linearGradient>
<linearGradient id="paint10_linear" x1="868.584" y1="835.371" x2="1717.77" y2="425.059" gradientUnits="userSpaceOnUse">
<stop/>
<stop offset="0.28" stop-color="#020202"/>
<stop offset="0.42" stop-color="#0A0A0A"/>
<stop offset="0.53" stop-color="#171717"/>
<stop offset="0.62" stop-color="#292929"/>
<stop offset="0.7" stop-color="#414141"/>
<stop offset="0.77" stop-color="#5F5F5F"/>
<stop offset="0.84" stop-color="#838383"/>
<stop offset="0.9" stop-color="#ACACAC"/>
<stop offset="0.96" stop-color="#D9D9D9"/>
<stop offset="1" stop-color="white"/>
</linearGradient>
<clipPath id="clip0">
<rect width="49" height="54" fill="white"/>
</clipPath>
</defs>
</svg>
