<svg width="25" height="28" viewBox="0 0 25 28" fill="none" xmlns="http://www.w3.org/2000/svg">
<g clip-path="url(#clip0)">
<path style="mix-blend-mode:screen" d="M22.7423 15.1904C23.6844 9.18776 19.6476 3.54749 13.7257 2.59247C7.80384 1.63746 2.23943 5.72934 1.29726 11.732C0.355089 17.7346 4.39194 23.3748 10.3138 24.3299C16.2357 25.2849 21.8001 21.193 22.7423 15.1904Z" fill="url(#paint0_radial)"/>
<path style="mix-blend-mode:screen" d="M19.1445 20.6816C23.0793 16.6931 23.0793 10.2264 19.1445 6.23784C15.2096 2.24931 8.82988 2.24931 4.895 6.23784C0.960115 10.2264 0.960115 16.6931 4.895 20.6816C8.82988 24.6701 15.2096 24.6701 19.1445 20.6816Z" fill="url(#paint1_radial)"/>
<path style="mix-blend-mode:color-dodge" d="M22.6397 15.172C23.5729 9.2269 19.5747 3.64064 13.7095 2.69477C7.84434 1.74889 2.33321 5.8016 1.40007 11.7467C0.466916 17.6919 4.46511 23.2781 10.3303 24.224C16.1954 25.1699 21.7066 21.1172 22.6397 15.172Z" fill="url(#paint2_radial)"/>
<path style="mix-blend-mode:color-burn" d="M22.6397 15.172C23.5729 9.2269 19.5747 3.64064 13.7095 2.69477C7.84434 1.74889 2.33321 5.8016 1.40007 11.7467C0.466916 17.6919 4.46511 23.2781 10.3303 24.224C16.1954 25.1699 21.7066 21.1172 22.6397 15.172Z" fill="url(#paint3_radial)"/>
<path style="mix-blend-mode:screen" d="M13.2643 2.01987C14.2225 4.05023 12.8484 6.74099 10.1939 8.0284C7.53929 9.31582 4.60923 8.7169 3.65102 6.68654C2.69281 4.65618 4.06688 1.96718 6.72144 0.678009C9.376 -0.611164 12.3026 5.15424e-05 13.2643 2.01987Z" fill="url(#paint4_radial)"/>
<path style="mix-blend-mode:color-dodge" d="M7.4077 10.5136C6.65049 13.5925 4.50536 15.7019 2.6236 15.226C0.741841 14.75 -0.173047 11.8678 0.582428 8.78185C1.3379 5.69592 3.48131 3.60057 5.37173 4.07655C7.26215 4.55252 8.16491 7.43472 7.4077 10.5136Z" fill="url(#paint5_radial)"/>
<path style="mix-blend-mode:screen" d="M21.8171 19.9014C23.575 19.9014 25.0001 16.7088 25.0001 12.7706C25.0001 8.8323 23.575 5.63971 21.8171 5.63971C20.0591 5.63971 18.634 8.8323 18.634 12.7706C18.634 16.7088 20.0591 19.9014 21.8171 19.9014Z" fill="url(#paint6_radial)"/>
<path style="mix-blend-mode:screen" d="M3.74637 24.2028C0.540799 20.9535 -0.881782 17.1281 0.568523 15.6598C2.01883 14.1915 5.79274 15.6317 8.99658 18.881C12.2004 22.1303 13.6265 25.9556 12.1762 27.4257C10.7259 28.8958 6.95194 27.452 3.74637 24.2028Z" fill="url(#paint7_radial)"/>
<path style="mix-blend-mode:screen" d="M4.89161 7.20108C6.00403 7.42239 4.48961 9.29116 3.98539 11.8695C3.48116 14.4479 4.20025 16.7557 3.08782 16.5344C1.9754 16.3131 1.48331 14.0509 1.97887 11.4708C2.47443 8.89071 3.77919 6.98329 4.89161 7.20108Z" fill="url(#paint8_linear)"/>
<path style="mix-blend-mode:screen" d="M20.5281 17.388C20.8746 17.511 20.2353 19.6713 18.1733 21.2626C16.1113 22.8539 13.8952 22.9206 13.8622 22.5553C13.7981 22.1794 15.6192 21.5682 17.3572 20.1912C19.128 18.8511 20.1867 17.23 20.5281 17.388Z" fill="url(#paint9_linear)"/>
<path style="mix-blend-mode:screen" d="M16.0298 4.77032C16.1511 4.41905 18.2824 5.06715 19.8523 7.15723C21.4221 9.2473 21.4862 11.4937 21.1258 11.5218C20.7533 11.5885 20.1503 9.7426 18.7918 7.98096C17.4697 6.18947 15.8704 5.11633 16.0298 4.77032Z" fill="url(#paint10_linear)"/>
</g>
<defs>
<radialGradient id="paint0_radial" cx="0" cy="0" r="1" gradientUnits="userSpaceOnUse" gradientTransform="translate(12.0199 13.4591) scale(10.8574 11.0054)">
<stop offset="0.76"/>
<stop offset="0.86" stop-color="#020202"/>
<stop offset="0.9" stop-color="#090909"/>
<stop offset="0.92" stop-color="#141414"/>
<stop offset="0.94" stop-color="#252525"/>
<stop offset="0.96" stop-color="#3B3B3B"/>
<stop offset="0.98" stop-color="#575757"/>
<stop offset="0.99" stop-color="#767676"/>
<stop offset="1" stop-color="#969696"/>
</radialGradient>
<radialGradient id="paint1_radial" cx="0" cy="0" r="1" gradientUnits="userSpaceOnUse" gradientTransform="translate(15.529 7.25514) scale(14.2189 14.4127)">
<stop stop-color="white"/>
<stop offset="0.01" stop-color="#F8F8F8"/>
<stop offset="0.09" stop-color="#C4C4C4"/>
<stop offset="0.17" stop-color="#969696"/>
<stop offset="0.26" stop-color="#6D6D6D"/>
<stop offset="0.35" stop-color="#4C4C4C"/>
<stop offset="0.44" stop-color="#303030"/>
<stop offset="0.55" stop-color="#1B1B1B"/>
<stop offset="0.66" stop-color="#0C0C0C"/>
<stop offset="0.8" stop-color="#030303"/>
<stop offset="1"/>
</radialGradient>
<radialGradient id="paint2_radial" cx="0" cy="0" r="1" gradientUnits="userSpaceOnUse" gradientTransform="translate(12.9938 11.9925) scale(12.6022 12.7741)">
<stop offset="0.51" stop-color="#020202"/>
<stop offset="0.87" stop-color="#2B2B2B"/>
<stop offset="0.91" stop-color="#212121"/>
<stop offset="0.98" stop-color="#080808"/>
<stop offset="1"/>
</radialGradient>
<radialGradient id="paint3_radial" cx="0" cy="0" r="1" gradientUnits="userSpaceOnUse" gradientTransform="translate(11.0219 12.602) scale(12.2851 12.4526)">
<stop offset="0.4" stop-color="white"/>
<stop offset="0.45" stop-color="#F7F7F7"/>
<stop offset="0.54" stop-color="#DFDFDF"/>
<stop offset="0.65" stop-color="#BABABA"/>
<stop offset="0.78" stop-color="#868686"/>
<stop offset="0.89" stop-color="#575757"/>
</radialGradient>
<radialGradient id="paint4_radial" cx="0" cy="0" r="1" gradientUnits="userSpaceOnUse" gradientTransform="translate(8.46201 4.21821) rotate(-25.8405) scale(5.32812 4.07173)">
<stop stop-color="white"/>
<stop offset="0.01" stop-color="#F6F6F6"/>
<stop offset="0.04" stop-color="#C8C8C8"/>
<stop offset="0.07" stop-color="#9D9D9D"/>
<stop offset="0.11" stop-color="#777777"/>
<stop offset="0.15" stop-color="#575757"/>
<stop offset="0.2" stop-color="#3B3B3B"/>
<stop offset="0.25" stop-color="#252525"/>
<stop offset="0.31" stop-color="#141414"/>
<stop offset="0.39" stop-color="#090909"/>
<stop offset="0.49" stop-color="#020202"/>
<stop offset="0.78"/>
</radialGradient>
<radialGradient id="paint5_radial" cx="0" cy="0" r="1" gradientUnits="userSpaceOnUse" gradientTransform="translate(3.99364 9.7232) rotate(14.0792) scale(3.51761 5.72869)">
<stop stop-color="white"/>
<stop offset="0.01" stop-color="#F6F6F6"/>
<stop offset="0.05" stop-color="#C8C8C8"/>
<stop offset="0.09" stop-color="#9D9D9D"/>
<stop offset="0.14" stop-color="#777777"/>
<stop offset="0.2" stop-color="#575757"/>
<stop offset="0.25" stop-color="#3B3B3B"/>
<stop offset="0.32" stop-color="#252525"/>
<stop offset="0.4" stop-color="#141414"/>
<stop offset="0.49" stop-color="#090909"/>
<stop offset="0.63" stop-color="#020202"/>
<stop offset="1"/>
</radialGradient>
<radialGradient id="paint6_radial" cx="0" cy="0" r="1" gradientUnits="userSpaceOnUse" gradientTransform="translate(820.189 -19108) scale(116.945 578.992)">
<stop stop-color="white"/>
<stop offset="0.01" stop-color="#F6F6F6"/>
<stop offset="0.05" stop-color="#C8C8C8"/>
<stop offset="0.09" stop-color="#9D9D9D"/>
<stop offset="0.14" stop-color="#777777"/>
<stop offset="0.2" stop-color="#575757"/>
<stop offset="0.25" stop-color="#3B3B3B"/>
<stop offset="0.32" stop-color="#252525"/>
<stop offset="0.4" stop-color="#141414"/>
<stop offset="0.49" stop-color="#090909"/>
<stop offset="0.63" stop-color="#020202"/>
<stop offset="1"/>
</radialGradient>
<radialGradient id="paint7_radial" cx="0" cy="0" r="1" gradientUnits="userSpaceOnUse" gradientTransform="translate(4457.9 46511) rotate(134.612) scale(274.953 607.569)">
<stop stop-color="white"/>
<stop offset="0.01" stop-color="#F6F6F6"/>
<stop offset="0.05" stop-color="#C8C8C8"/>
<stop offset="0.09" stop-color="#9D9D9D"/>
<stop offset="0.14" stop-color="#777777"/>
<stop offset="0.2" stop-color="#575757"/>
<stop offset="0.25" stop-color="#3B3B3B"/>
<stop offset="0.32" stop-color="#252525"/>
<stop offset="0.4" stop-color="#141414"/>
<stop offset="0.49" stop-color="#090909"/>
<stop offset="0.63" stop-color="#020202"/>
<stop offset="1"/>
</radialGradient>
<linearGradient id="paint8_linear" x1="8.31724" y1="12.8285" x2="-0.324099" y2="10.9629" gradientUnits="userSpaceOnUse">
<stop/>
<stop offset="0.28" stop-color="#020202"/>
<stop offset="0.42" stop-color="#0A0A0A"/>
<stop offset="0.53" stop-color="#171717"/>
<stop offset="0.62" stop-color="#292929"/>
<stop offset="0.7" stop-color="#414141"/>
<stop offset="0.77" stop-color="#5F5F5F"/>
<stop offset="0.84" stop-color="#838383"/>
<stop offset="0.9" stop-color="#ACACAC"/>
<stop offset="0.96" stop-color="#D9D9D9"/>
<stop offset="1" stop-color="white"/>
</linearGradient>
<linearGradient id="paint9_linear" x1="-4703.8" y1="-767.221" x2="-4525.53" y2="-537.276" gradientUnits="userSpaceOnUse">
<stop/>
<stop offset="0.28" stop-color="#020202"/>
<stop offset="0.42" stop-color="#0A0A0A"/>
<stop offset="0.53" stop-color="#171717"/>
<stop offset="0.62" stop-color="#292929"/>
<stop offset="0.7" stop-color="#414141"/>
<stop offset="0.77" stop-color="#5F5F5F"/>
<stop offset="0.84" stop-color="#838383"/>
<stop offset="0.9" stop-color="#ACACAC"/>
<stop offset="0.96" stop-color="#D9D9D9"/>
<stop offset="1" stop-color="white"/>
</linearGradient>
<linearGradient id="paint10_linear" x1="443.155" y1="433.156" x2="879.04" y2="225.921" gradientUnits="userSpaceOnUse">
<stop/>
<stop offset="0.28" stop-color="#020202"/>
<stop offset="0.42" stop-color="#0A0A0A"/>
<stop offset="0.53" stop-color="#171717"/>
<stop offset="0.62" stop-color="#292929"/>
<stop offset="0.7" stop-color="#414141"/>
<stop offset="0.77" stop-color="#5F5F5F"/>
<stop offset="0.84" stop-color="#838383"/>
<stop offset="0.9" stop-color="#ACACAC"/>
<stop offset="0.96" stop-color="#D9D9D9"/>
<stop offset="1" stop-color="white"/>
</linearGradient>
<clipPath id="clip0">
<rect width="25" height="28" fill="white"/>
</clipPath>
</defs>
</svg>
